<svg width="167" height="57" viewBox="0 0 167 57" fill="none" xmlns="http://www.w3.org/2000/svg">
<path d="M3.424 41V17.03H13.352C15.9133 17.03 17.874 17.642 19.234 18.866C20.594 20.09 21.274 21.7787 21.274 23.932C21.274 26.0853 20.594 27.7853 19.234 29.032C17.874 30.256 15.9133 30.868 13.352 30.868H6.586V41H3.424ZM6.586 28.284H13.046C14.7233 28.284 15.9927 27.91 16.854 27.162C17.7153 26.3913 18.146 25.3147 18.146 23.932C18.146 22.5493 17.7153 21.484 16.854 20.736C15.9927 19.988 14.7233 19.614 13.046 19.614H6.586V28.284ZM31.2169 41.306C29.1542 41.306 27.6015 40.7507 26.5589 39.64C25.5389 38.5293 25.0289 36.818 25.0289 34.506V23.898H28.1229V34.438C28.1229 35.934 28.4289 37.0333 29.0409 37.736C29.6529 38.4387 30.6049 38.79 31.8969 38.79C33.3022 38.79 34.4355 38.3253 35.2969 37.396C36.1809 36.444 36.6229 35.186 36.6229 33.622V23.898H39.7169V41H36.7249V37.226H37.1669C36.6909 38.518 35.9315 39.5267 34.8889 40.252C33.8462 40.9547 32.6222 41.306 31.2169 41.306ZM44.8859 41V28.08C44.8859 27.4 44.8633 26.7087 44.8179 26.006C44.7953 25.2807 44.7386 24.578 44.6479 23.898H47.6399L48.0139 28.182L47.5039 28.216C47.7306 27.1733 48.1159 26.312 48.6599 25.632C49.2266 24.9293 49.8953 24.4193 50.6659 24.102C51.4593 23.762 52.2753 23.592 53.1139 23.592C53.4766 23.592 53.7826 23.6033 54.0319 23.626C54.2813 23.6487 54.5306 23.7053 54.7799 23.796L54.7119 26.55C54.3719 26.414 54.0546 26.3347 53.7599 26.312C53.4879 26.2667 53.1479 26.244 52.7399 26.244C51.7426 26.244 50.8813 26.4707 50.1559 26.924C49.4533 27.3773 48.9093 27.978 48.5239 28.726C48.1613 29.474 47.9799 30.2787 47.9799 31.14V41H44.8859ZM65.0575 41.306C62.3375 41.306 60.1842 40.524 58.5975 38.96C57.0335 37.396 56.2515 35.2427 56.2515 32.5C56.2515 30.6867 56.5915 29.1227 57.2715 27.808C57.9742 26.4707 58.9375 25.4393 60.1615 24.714C61.3855 23.966 62.8135 23.592 64.4455 23.592C66.0095 23.592 67.3355 23.932 68.4235 24.612C69.5115 25.2693 70.3388 26.21 70.9055 27.434C71.4722 28.658 71.7555 30.1087 71.7555 31.786V32.806H58.6655V30.97H69.6475L69.0695 31.412C69.0695 29.644 68.6728 28.2727 67.8795 27.298C67.1088 26.3233 65.9642 25.836 64.4455 25.836C62.7908 25.836 61.5102 26.414 60.6035 27.57C59.6968 28.7033 59.2435 30.256 59.2435 32.228V32.534C59.2435 34.6193 59.7535 36.1947 60.7735 37.26C61.8162 38.3253 63.2555 38.858 65.0915 38.858C66.1115 38.858 67.0635 38.7107 67.9475 38.416C68.8315 38.1213 69.6815 37.634 70.4975 36.954L71.5175 39.096C70.7468 39.7987 69.7835 40.3427 68.6275 40.728C67.4942 41.1133 66.3042 41.306 65.0575 41.306ZM76.1388 41V17.03H85.8968C88.4808 17.03 90.4642 17.574 91.8468 18.662C93.2295 19.75 93.9208 21.28 93.9208 23.252C93.9208 24.748 93.4675 25.9947 92.5608 26.992C91.6768 27.9893 90.4642 28.658 88.9228 28.998V28.488C90.6908 28.692 92.0622 29.304 93.0368 30.324C94.0342 31.344 94.5328 32.6927 94.5328 34.37C94.5328 36.5007 93.8188 38.144 92.3908 39.3C90.9628 40.4333 88.9455 41 86.3388 41H76.1388ZM79.1988 38.484H86.0328C87.7102 38.484 89.0248 38.1667 89.9768 37.532C90.9515 36.8747 91.4388 35.798 91.4388 34.302C91.4388 32.7833 90.9515 31.7067 89.9768 31.072C89.0248 30.4373 87.7102 30.12 86.0328 30.12H79.1988V38.484ZM79.1988 27.604H85.4548C87.2455 27.604 88.5828 27.264 89.4668 26.584C90.3508 25.8813 90.7928 24.8727 90.7928 23.558C90.7928 22.2433 90.3508 21.246 89.4668 20.566C88.5828 19.8633 87.2455 19.512 85.4548 19.512H79.1988V27.604ZM98.9738 41V28.08C98.9738 27.4 98.9512 26.7087 98.9058 26.006C98.8832 25.2807 98.8265 24.578 98.7358 23.898H101.728L102.102 28.182L101.592 28.216C101.818 27.1733 102.204 26.312 102.748 25.632C103.314 24.9293 103.983 24.4193 104.754 24.102C105.547 23.762 106.363 23.592 107.202 23.592C107.564 23.592 107.87 23.6033 108.12 23.626C108.369 23.6487 108.618 23.7053 108.868 23.796L108.8 26.55C108.46 26.414 108.142 26.3347 107.848 26.312C107.576 26.2667 107.236 26.244 106.828 26.244C105.83 26.244 104.969 26.4707 104.244 26.924C103.541 27.3773 102.997 27.978 102.612 28.726C102.249 29.474 102.068 30.2787 102.068 31.14V41H98.9738ZM117.678 41.306C115.615 41.306 114.062 40.7507 113.02 39.64C112 38.5293 111.49 36.818 111.49 34.506V23.898H114.584V34.438C114.584 35.934 114.89 37.0333 115.502 37.736C116.114 38.4387 117.066 38.79 118.358 38.79C119.763 38.79 120.896 38.3253 121.758 37.396C122.642 36.444 123.084 35.186 123.084 33.622V23.898H126.178V41H123.186V37.226H123.628C123.152 38.518 122.392 39.5267 121.35 40.252C120.307 40.9547 119.083 41.306 117.678 41.306ZM137.161 41.306C135.778 41.306 134.486 41.1247 133.285 40.762C132.106 40.3993 131.132 39.878 130.361 39.198L131.347 37.056C132.186 37.6907 133.104 38.178 134.101 38.518C135.121 38.8353 136.164 38.994 137.229 38.994C138.521 38.994 139.496 38.756 140.153 38.28C140.833 37.804 141.173 37.1693 141.173 36.376C141.173 35.7413 140.958 35.2313 140.527 34.846C140.096 34.4607 139.416 34.1773 138.487 33.996L135.257 33.35C133.806 33.01 132.707 32.466 131.959 31.718C131.234 30.9473 130.871 29.9613 130.871 28.76C130.871 27.7627 131.143 26.8787 131.687 26.108C132.231 25.3147 133.002 24.7027 133.999 24.272C135.019 23.8187 136.209 23.592 137.569 23.592C138.816 23.592 139.972 23.7733 141.037 24.136C142.125 24.4987 143.02 25.0313 143.723 25.734L142.703 27.808C142 27.196 141.207 26.7313 140.323 26.414C139.462 26.074 138.578 25.904 137.671 25.904C136.356 25.904 135.382 26.1647 134.747 26.686C134.112 27.1847 133.795 27.842 133.795 28.658C133.795 29.27 133.988 29.78 134.373 30.188C134.758 30.5733 135.382 30.868 136.243 31.072L139.473 31.718C140.992 32.0353 142.136 32.5567 142.907 33.282C143.678 34.0073 144.063 34.9707 144.063 36.172C144.063 37.2373 143.768 38.1553 143.179 38.926C142.612 39.6967 141.808 40.286 140.765 40.694C139.745 41.102 138.544 41.306 137.161 41.306ZM148.281 41V15.976H151.375V27.604H150.933C151.432 26.2893 152.237 25.292 153.347 24.612C154.458 23.932 155.739 23.592 157.189 23.592C159.252 23.592 160.771 24.1473 161.745 25.258C162.743 26.3687 163.241 28.046 163.241 30.29V41H160.147V30.46C160.147 28.9413 159.853 27.842 159.263 27.162C158.674 26.4593 157.711 26.108 156.373 26.108C154.877 26.108 153.665 26.5727 152.735 27.502C151.829 28.4313 151.375 29.6667 151.375 31.208V41H148.281Z" fill="black"/>
</svg>
